<?xml version="1.0" standalone="no"?><svg xmlns:xlink="http://www.w3.org/1999/xlink" xmlns="http://www.w3.org/2000/svg" viewBox="0 0 1000 1153.8554687905448" preserveAspectRatio="xMaxYMax slice"><g transform="scale(1.7299182440637855)"><rect x="0" y="0" width="578.0666666666667" height="667" fill="#33677F"/><g transform="translate(13.52,146.92) scale(0.8714999999999999) rotate(0)"><path d="M10 0H20V10L10 20H0V10L10 0Z" fill="#33677f"/></g><g transform="translate(547.12,146.92) scale(0.8714999999999999) rotate(0)"><path d="M10 0H20V10L10 20H0V10L10 0Z" fill="#243c45"/></g><g transform="translate(56.56,189.96) scale(1.014) rotate(0)"><path d="M10 0H20V10L10 20H0V10L10 0Z" fill="#33677f"/></g><g transform="translate(231.58,276.05) scale(1.2985) rotate(0)"><path d="M10 0H20V10L10 20H0V10L10 0Z" fill="#7695a3"/></g><g transform="translate(542.85,276.05) scale(1.2985) rotate(0)"><path d="M10 0H20V10L10 20H0V10L10 0Z" fill="#3a6d83"/></g><g transform="translate(449.65,405.18) scale(1.7254999999999998) rotate(0)"><path d="M10 0H20V10L10 20H0V10L10 0Z" fill="#417287"/></g><g transform="translate(135.53,491.27) scale(2.0100000000000002) rotate(0)"><path d="M10 0H20V10L10 20H0V10L10 0Z" fill="#284754"/></g><g transform="translate(224.47,491.27) scale(2.0100000000000002) rotate(0)"><path d="M10 0H20V10L10 20H0V10L10 0Z" fill="#cdd0d2"/></g><g transform="translate(491.27,491.27) scale(2.0100000000000002) rotate(0)"><path d="M10 0H20V10L10 20H0V10L10 0Z" fill="#33677f"/></g><g transform="translate(267.51,534.31) scale(2.152) rotate(0)"><path d="M10 0H20V10L10 20H0V10L10 0Z" fill="#33677f"/></g><g transform="translate(0,578.07) scale(2.2235) rotate(0)"><path d="M10 0H20V10L10 20H0V10L10 0Z" fill="#33677f"/></g><g transform="translate(177.87,578.07) scale(2.2235) rotate(0)"><path d="M10 0H20V10L10 20H0V10L10 0Z" fill="#1f2c30"/></g><g transform="translate(222.33,578.07) scale(2.2235) rotate(0)"><path d="M10 0H20V10L10 20H0V10L10 0Z" fill="#557e91"/></g><g transform="translate(44.47,622.53) scale(2.2235) rotate(0)"><path d="M10 0H20V10L10 20H0V10L10 0Z" fill="#84a7ac"/></g><g transform="translate(266.8,622.53) scale(2.2235) rotate(0)"><path d="M10 0H20V10L10 20H0V10L10 0Z" fill="#22373f"/></g><g transform="translate(355.73,622.53) scale(2.2235) rotate(0)"><path d="M10 0H20V10L10 20H0V10L10 0Z" fill="#33677f"/></g><g transform="translate(400.2,622.53) scale(2.2235) rotate(0)"><path d="M10 0H20V10L10 20H0V10L10 0Z" fill="#33677f"/></g></g></svg>