<?xml version="1.0" standalone="no"?><svg xmlns:xlink="http://www.w3.org/1999/xlink" xmlns="http://www.w3.org/2000/svg" viewBox="0 0 1000 1375.036592053237" preserveAspectRatio="xMaxYMax slice"><g transform="scale(2.061524126016847)"><rect x="0" y="0" width="485.09090909090907" height="667" fill="#191C1A"/><g transform="translate(18.96,140.24) scale(1.1355) rotate(0)"><path d="M10 0H20V10L10 20H0V10L10 0Z" fill="#616261"/></g><g transform="translate(79.6,140.24) scale(1.1355) rotate(0)"><path d="M10 0H20V10L10 20H0V10L10 0Z" fill="#191c1a"/></g><g transform="translate(16.32,198.23) scale(1.4) rotate(0)"><path d="M13 0H20V7L7 20H0V13L13 0Z" fill="#191c1a"/></g><g transform="translate(198.23,198.23) scale(1.4) rotate(0)"><path d="M10 0H20V10L10 20H0V10L10 0Z" fill="#191c1a"/></g><g transform="translate(319.5,198.23) scale(1.4) rotate(0)"><path d="M10 0H20V10L10 20H0V10L10 0Z" fill="#191c1a"/></g><g transform="translate(440.77,198.23) scale(1.4) rotate(0)"><path d="M13 0H20V7L7 20H0V13L13 0Z" fill="#336071"/></g><g transform="translate(134.94,256.22) scale(1.6644999999999999) rotate(0)"><path d="M13 0H20V7L7 20H0V13L13 0Z" fill="#191c1a"/></g><g transform="translate(316.85,256.22) scale(1.6644999999999999) rotate(0)"><path d="M13 0H20V7L7 20H0V13L13 0Z" fill="#a3a4a3"/></g><g transform="translate(438.13,256.22) scale(1.6644999999999999) rotate(0)"><path d="M10 0H20V10L10 20H0V10L10 0Z" fill="#191c1a"/></g><g transform="translate(71.66,314.21) scale(1.9295000000000002) rotate(0)"><path d="M10 0H20V10L10 20H0V10L10 0Z" fill="#191c1a"/></g><g transform="translate(132.3,314.21) scale(1.9295000000000002) rotate(0)"><path d="M10 0H20V10L10 20H0V10L10 0Z" fill="#191c1a"/></g><g transform="translate(253.57,314.21) scale(1.9295000000000002) rotate(0)"><path d="M10 0H20V10L10 20H0V10L10 0Z" fill="#191c1a"/></g><g transform="translate(435.48,314.21) scale(1.9295000000000002) rotate(0)"><path d="M13 0H20V7L7 20H0V13L13 0Z" fill="#191c1a"/></g><g transform="translate(129.65,372.2) scale(2.194) rotate(0)"><path d="M10 0H20V10L10 20H0V10L10 0Z" fill="#191c1a"/></g><g transform="translate(190.29,372.2) scale(2.194) rotate(0)"><path d="M13 0H20V7L7 20H0V13L13 0Z" fill="#191c1a"/></g><g transform="translate(250.92,372.2) scale(2.194) rotate(0)"><path d="M13 0H20V7L7 20H0V13L13 0Z" fill="#191c1a"/></g><g transform="translate(311.56,372.2) scale(2.194) rotate(0)"><path d="M10 0H20V10L10 20H0V10L10 0Z" fill="#191c1a"/></g><g transform="translate(372.2,372.2) scale(2.194) rotate(0)"><path d="M13 0H20V7L7 20H0V13L13 0Z" fill="#191c1a"/></g><g transform="translate(432.83,372.2) scale(2.194) rotate(0)"><path d="M13 0H20V7L7 20H0V13L13 0Z" fill="#191c1a"/></g><g transform="translate(66.37,430.19) scale(2.4585) rotate(0)"><path d="M13 0H20V7L7 20H0V13L13 0Z" fill="#191c1a"/></g><g transform="translate(127.01,430.19) scale(2.4585) rotate(0)"><path d="M10 0H20V10L10 20H0V10L10 0Z" fill="#253c43"/></g><g transform="translate(3.09,488.18) scale(2.723) rotate(0)"><path d="M13 0H20V7L7 20H0V13L13 0Z" fill="#191c1a"/></g><g transform="translate(63.72,488.18) scale(2.723) rotate(0)"><path d="M10 0H20V10L10 20H0V10L10 0Z" fill="#1e211f"/></g><g transform="translate(124.36,488.18) scale(2.723) rotate(0)"><path d="M10 0H20V10L10 20H0V10L10 0Z" fill="#191c1a"/></g><g transform="translate(245.63,488.18) scale(2.723) rotate(0)"><path d="M13 0H20V7L7 20H0V13L13 0Z" fill="#191c1a"/></g><g transform="translate(306.27,488.18) scale(2.723) rotate(0)"><path d="M10 0H20V10L10 20H0V10L10 0Z" fill="#294851"/></g><g transform="translate(366.91,488.18) scale(2.723) rotate(0)"><path d="M10 0H20V10L10 20H0V10L10 0Z" fill="#191c1a"/></g><g transform="translate(427.54,488.18) scale(2.723) rotate(0)"><path d="M13 0H20V7L7 20H0V13L13 0Z" fill="#191c1a"/></g><g transform="translate(0.44,546.17) scale(2.9875) rotate(0)"><path d="M10 0H20V10L10 20H0V10L10 0Z" fill="#223338"/></g><g transform="translate(61.08,546.17) scale(2.9875) rotate(0)"><path d="M13 0H20V7L7 20H0V13L13 0Z" fill="#c7c7c7"/></g><g transform="translate(121.71,546.17) scale(2.9875) rotate(0)"><path d="M13 0H20V7L7 20H0V13L13 0Z" fill="#191c1a"/></g><g transform="translate(182.35,546.17) scale(2.9875) rotate(0)"><path d="M13 0H20V7L7 20H0V13L13 0Z" fill="#191c1a"/></g><g transform="translate(242.99,546.17) scale(2.9875) rotate(0)"><path d="M10 0H20V10L10 20H0V10L10 0Z" fill="#191c1a"/></g><g transform="translate(303.62,546.17) scale(2.9875) rotate(0)"><path d="M13 0H20V7L7 20H0V13L13 0Z" fill="#191c1a"/></g><g transform="translate(364.26,546.17) scale(2.9875) rotate(0)"><path d="M13 0H20V7L7 20H0V13L13 0Z" fill="#315b6a"/></g><g transform="translate(424.9,546.17) scale(2.9875) rotate(0)"><path d="M13 0H20V7L7 20H0V13L13 0Z" fill="#191c1a"/></g><g transform="translate(0,606.36) scale(3.032) rotate(0)"><path d="M13 0H20V7L7 20H0V13L13 0Z" fill="#191c1a"/></g><g transform="translate(60.64,606.36) scale(3.032) rotate(0)"><path d="M10 0H20V10L10 20H0V10L10 0Z" fill="#191c1a"/></g><g transform="translate(121.27,606.36) scale(3.032) rotate(0)"><path d="M13 0H20V7L7 20H0V13L13 0Z" fill="#191c1a"/></g><g transform="translate(181.91,606.36) scale(3.032) rotate(0)"><path d="M10 0H20V10L10 20H0V10L10 0Z" fill="#1d2728"/></g><g transform="translate(242.55,606.36) scale(3.032) rotate(0)"><path d="M13 0H20V7L7 20H0V13L13 0Z" fill="#191c1a"/></g><g transform="translate(303.18,606.36) scale(3.032) rotate(0)"><path d="M10 0H20V10L10 20H0V10L10 0Z" fill="#386e82"/></g><g transform="translate(363.82,606.36) scale(3.032) rotate(0)"><path d="M13 0H20V7L7 20H0V13L13 0Z" fill="#2e525f"/></g><g transform="translate(424.45,606.36) scale(3.032) rotate(0)"><path d="M13 0H20V7L7 20H0V13L13 0Z" fill="#191c1a"/></g></g></svg>