<?xml version="1.0" standalone="no"?>
<!DOCTYPE svg PUBLIC "-//W3C//DTD SVG 20010904//EN"
 "http://www.w3.org/TR/2001/REC-SVG-20010904/DTD/svg10.dtd">
<svg version="1.0" xmlns="http://www.w3.org/2000/svg"
 width="101.000000pt" height="114.000000pt" viewBox="0 0 101.000000 114.000000"
 preserveAspectRatio="xMidYMid meet">

<g transform="translate(0.000000,114.000000) scale(0.100000,-0.100000)"
fill="#000000" stroke="none">
<path d="M90 920 l0 -150 115 0 115 0 0 46 0 47 56 -7 c102 -12 151 -54 119
-103 -21 -32 -72 -53 -130 -53 l-45 0 0 -105 0 -105 31 0 c52 0 116 -21 139
-45 48 -51 -6 -109 -111 -121 l-59 -7 0 -105 0 -105 101 8 c264 18 389 106
389 272 0 75 -29 134 -86 175 l-45 32 40 37 c52 47 63 77 63 169 1 87 -8 114
-54 166 -69 79 -180 104 -457 104 l-181 0 0 -150z"/>
<path d="M122 664 l3 -66 78 -1 77 -2 0 68 0 67 -80 0 -81 0 3 -66z"/>
<path d="M150 515 l0 -45 50 0 50 0 0 45 0 45 -50 0 -50 0 0 -45z"/>
<path d="M170 405 c0 -22 4 -25 35 -25 31 0 35 3 35 25 0 22 -4 25 -35 25 -31
0 -35 -3 -35 -25z"/>
<path d="M170 310 c0 -21 5 -25 30 -25 25 0 30 4 30 25 0 21 -5 25 -30 25 -25
0 -30 -4 -30 -25z"/>
</g>
</svg>
